<svg width="16" height="14" viewBox="0 0 16 14" fill="none" xmlns="http://www.w3.org/2000/svg">
<path d="M8 5.4375C9.50152 5.4375 10.7188 4.22027 10.7188 2.71875C10.7188 1.21723 9.50152 0 8 0C6.49848 0 5.28125 1.21723 5.28125 2.71875C5.28125 4.22027 6.49848 5.4375 8 5.4375Z" fill="#0D47A1"/>
<path d="M13.5 5.4375C14.4492 5.4375 15.2188 4.66799 15.2188 3.71875C15.2188 2.76951 14.4492 2 13.5 2C12.5508 2 11.7812 2.76951 11.7812 3.71875C11.7812 4.66799 12.5508 5.4375 13.5 5.4375Z" fill="#0D47A1"/>
<path d="M2.5 5.4375C3.44924 5.4375 4.21875 4.66799 4.21875 3.71875C4.21875 2.76951 3.44924 2 2.5 2C1.55076 2 0.78125 2.76951 0.78125 3.71875C0.78125 4.66799 1.55076 5.4375 2.5 5.4375Z" fill="#0D47A1"/>
<path d="M4.19344 6.98073C3.51688 6.42642 2.90416 6.4998 2.12188 6.4998C0.951875 6.4998 0 7.44605 0 8.60886V12.0217C0 12.5267 0.412188 12.9373 0.919062 12.9373C3.10738 12.9373 2.84375 12.9769 2.84375 12.8429C2.84375 10.4246 2.55731 8.65114 4.19344 6.98073Z" fill="#0D47A1"/>
<path d="M8.74406 6.51246C7.37769 6.39849 6.19003 6.51377 5.16563 7.35934C3.45134 8.73246 3.78125 10.5813 3.78125 12.8431C3.78125 13.4415 4.26813 13.9375 4.87563 13.9375C11.4719 13.9375 11.7345 14.1502 12.1256 13.284C12.2539 12.9911 12.2188 13.0842 12.2188 10.2818C12.2188 8.05602 10.2915 6.51246 8.74406 6.51246Z" fill="#0D47A1"/>
<path d="M13.8781 6.49996C13.0916 6.49996 12.4822 6.42734 11.8066 6.9809C13.4305 8.6389 13.1563 10.2914 13.1563 12.8431C13.1563 12.9779 12.9374 12.9375 15.0481 12.9375C15.5731 12.9375 16 12.5122 16 11.9893V8.60903C16 7.44621 15.0481 6.49996 13.8781 6.49996Z" fill="#0D47A1"/>
</svg>
