<svg width="23" height="14" viewBox="0 0 23 14" fill="none" xmlns="http://www.w3.org/2000/svg">
<path d="M11.5 0C7.10561 0 3.12054 2.45504 0.179963 6.44269C-0.0599877 6.76939 -0.0599877 7.22581 0.179963 7.55251C3.12054 11.545 7.10561 14 11.5 14C15.8944 14 19.8795 11.545 22.82 7.55731C23.06 7.23061 23.06 6.77419 22.82 6.4475C19.8795 2.45505 15.8944 0 11.5 0ZM11.8152 11.9293C8.89818 12.1167 6.48926 9.66163 6.67275 6.67811C6.82331 4.21826 8.77585 2.22443 11.1848 2.07069C14.1018 1.88332 16.5107 4.33837 16.3272 7.32189C16.172 9.77694 14.2194 11.7708 11.8152 11.9293ZM11.6694 9.65202C10.0979 9.75292 8.79938 8.43171 8.90288 6.82704C8.98287 5.50103 10.0368 4.42965 11.3353 4.34317C12.9068 4.24228 14.2053 5.56349 14.1018 7.16815C14.0171 8.49897 12.9632 9.57035 11.6694 9.65202Z" fill="#0D47A1"/>
</svg>
