<svg width="10" height="10" viewBox="0 0 10 10" fill="none" xmlns="http://www.w3.org/2000/svg">
<path d="M0.490091 7.95899C0.176384 8.2726 9.47354e-05 8.69798 0 9.14156L0 10.0001H0.858495C1.30208 9.99996 1.72746 9.82367 2.04107 9.50997L7.62066 3.93037L6.06968 2.37939L0.490091 7.95899Z" fill="#0D47A1"/>
<path d="M9.67862 0.321542C9.57679 0.219608 9.45587 0.138743 9.32277 0.0835703C9.18967 0.0283979 9.047 0 8.90292 0C8.75884 0 8.61617 0.0283979 8.48307 0.0835703C8.34997 0.138743 8.22905 0.219608 8.12722 0.321542L6.66113 1.78805L8.21211 3.33903L9.67862 1.87294C9.78056 1.77111 9.86142 1.65019 9.91659 1.51709C9.97176 1.38399 10.0002 1.24132 10.0002 1.09724C10.0002 0.953159 9.97176 0.81049 9.91659 0.67739C9.86142 0.54429 9.78056 0.42337 9.67862 0.321542Z" fill="#0D47A1"/>
</svg>
