<svg width="24" height="24" viewBox="0 0 24 24" fill="none" xmlns="http://www.w3.org/2000/svg">
<path d="M23.3548 10.4388C23.3543 10.4383 23.3537 10.4377 23.3532 10.4372L13.5621 0.647461C13.1447 0.22998 12.5899 0 11.9997 0C11.4095 0 10.8546 0.229797 10.4371 0.647278L0.651092 10.4321C0.647796 10.4354 0.6445 10.4388 0.641203 10.4421C-0.215818 11.304 -0.214353 12.7024 0.645415 13.5621C1.03822 13.955 1.55701 14.1826 2.11169 14.2064C2.13421 14.2086 2.15692 14.2097 2.17981 14.2097H2.57005V21.4144C2.57005 22.84 3.73014 24 5.15631 24H8.9869C9.37513 24 9.6901 23.6852 9.6901 23.2969V17.6484C9.6901 16.9979 10.2193 16.4687 10.87 16.4687H13.1294C13.78 16.4687 14.3092 16.9979 14.3092 17.6484V23.2969C14.3092 23.6852 14.624 24 15.0124 24H18.843C20.2692 24 21.4293 22.84 21.4293 21.4144V14.2097H21.7911C22.3812 14.2097 22.936 13.9799 23.3537 13.5624C24.2144 12.7013 24.2148 11.3005 23.3548 10.4388Z" fill="#0B3B86"/>
</svg>
