<svg width="16" height="16" viewBox="0 0 16 16" fill="none" xmlns="http://www.w3.org/2000/svg">
<path d="M2.55712 10.3242C2.9998 10.7374 3.5018 11.0651 4.03981 11.3113L6.86919 9.45741C7.45453 9.07201 8.23854 9.16315 8.72855 9.67723L9.6799 10.6699C11.1059 9.57288 11.9999 7.81775 11.9999 5.91305C11.9999 2.65253 9.45789 0 6.33318 0C3.20847 0 0.666428 2.65253 0.666428 5.91305C0.666428 7.59584 1.3551 9.20349 2.55712 10.3242ZM6.58652 6.43479H6.07984C5.3005 6.43479 4.66649 5.77323 4.66649 4.96001C4.66649 4.22888 5.17183 3.62714 5.83317 3.5047V2.95653C5.83317 2.66853 6.05718 2.43479 6.33318 2.43479C6.60918 2.43479 6.83319 2.66853 6.83319 2.95653V3.47827H7.49987C7.77587 3.47827 7.99987 3.71201 7.99987 4.00001C7.99987 4.28801 7.77587 4.52175 7.49987 4.52175H6.07984C5.85184 4.52175 5.6665 4.71514 5.6665 4.95305C5.6665 5.19792 5.85184 5.39131 6.07984 5.39131H6.58652C7.36586 5.39131 7.99987 6.05288 7.99987 6.8661C7.99987 7.59723 7.49453 8.19897 6.83319 8.3214V8.86888C6.83319 9.15688 6.60918 9.39062 6.33318 9.39062C6.05718 9.39062 5.83317 9.15688 5.83317 8.86888V8.34784H5.1665C4.89049 8.34784 4.66649 8.1141 4.66649 7.8261C4.66649 7.5381 4.89049 7.30436 5.1665 7.30436H6.58652C6.81452 7.30436 6.99986 7.11097 6.99986 6.87305C6.99986 6.62818 6.81452 6.43479 6.58652 6.43479Z" fill="#0D47A1"/>
<path d="M15.3333 7.6521H12.6666C12.3973 7.6521 12.1533 7.82184 12.0506 8.08132C11.9473 8.34149 12.0046 8.64062 12.1953 8.83958L13.0573 9.73906L10.3332 12.5815L8.13788 10.2907C7.91988 10.0618 7.57721 10.0222 7.31587 10.1912L0.315762 14.713C0.00242412 14.9154 -0.0935773 15.3439 0.0997589 15.6702C0.225761 15.8831 0.443764 15.9999 0.667101 15.9999C0.787103 15.9999 0.907771 15.9665 1.01711 15.8956L7.56787 11.6639L9.86124 14.057C10.1219 14.329 10.5433 14.329 10.8039 14.057L14 10.7227L14.862 11.6222C14.9893 11.7551 15.16 11.826 15.3333 11.826C15.4193 11.826 15.506 11.8086 15.5887 11.7731C15.838 11.6653 16 11.4114 16 11.1304V8.34775C16 7.96375 15.702 7.6521 15.3333 7.6521Z" fill="#0D47A1"/>
</svg>
