<svg width="24" height="25" viewBox="0 0 24 25" fill="none" xmlns="http://www.w3.org/2000/svg">
<path d="M23.1424 18.6001H5.14237C3.7244 18.6001 2.57094 17.4466 2.57094 16.0287V4.02867C2.57094 3.08322 1.80211 2.31438 0.856655 2.31438C0.383301 2.31438 -0.000488281 1.93059 -0.000488281 1.45724C-0.000488281 0.983887 0.383301 0.600098 0.856655 0.600098C2.74714 0.600098 4.28523 2.13818 4.28523 4.02867V16.0287C4.28523 16.5012 4.66985 16.8858 5.14237 16.8858H23.1424C23.6157 16.8858 23.9995 17.2696 23.9995 17.743C23.9995 18.2163 23.6157 18.6001 23.1424 18.6001Z" fill="#282828"/>
<path d="M7.71382 24.6001C9.13398 24.6001 10.2853 23.4489 10.2853 22.0287C10.2853 20.6085 9.13398 19.4573 7.71382 19.4573C6.29366 19.4573 5.1424 20.6085 5.1424 22.0287C5.1424 23.4489 6.29366 24.6001 7.71382 24.6001Z" fill="#282828"/>
<path d="M20.5709 24.6001C21.9911 24.6001 23.1424 23.4489 23.1424 22.0287C23.1424 20.6085 21.9911 19.4573 20.5709 19.4573C19.1508 19.4573 17.9995 20.6085 17.9995 22.0287C17.9995 23.4489 19.1508 24.6001 20.5709 24.6001Z" fill="#282828"/>
<path d="M13.9817 5.83657L15.4281 6.99379V3.17139H11.9995V6.99379L13.4459 5.83657C13.6033 5.71184 13.8243 5.71184 13.9817 5.83657Z" fill="#282828"/>
<path d="M16.2852 3.17139V7.88567C16.2852 8.05057 16.1906 8.2004 16.0425 8.27197C15.983 8.30043 15.9194 8.31424 15.8567 8.31424C15.7612 8.31424 15.6666 8.28244 15.5888 8.22049L13.7138 6.72008L11.8388 8.22049C11.7091 8.32345 11.5341 8.34312 11.3851 8.27197C11.237 8.2004 11.1424 8.05057 11.1424 7.88567V3.17139H7.7138C6.76702 3.17139 5.99951 3.9389 5.99951 4.88567V14.3142C5.99951 15.261 6.76702 16.0285 7.7138 16.0285H19.7138C20.6606 16.0285 21.4281 15.261 21.4281 14.3142V4.88567C21.4281 3.9389 20.6606 3.17139 19.7138 3.17139H16.2852Z" fill="#282828"/>
</svg>
