<svg width="16" height="13" viewBox="0 0 16 13" fill="none" xmlns="http://www.w3.org/2000/svg">
<path d="M7.99606 13.0001C5.64991 13.0001 3.31428 13.0001 0.968132 13.0001C0.431569 13.0001 0.0212555 12.6109 0.000213783 12.102C-0.0103071 11.5631 0.368444 11.144 0.926049 11.144C2.98814 11.134 5.06074 11.124 7.12283 11.124C9.75304 11.124 12.3727 11.134 15.003 11.124C15.4553 11.124 15.9183 11.5032 15.9814 11.8525C16.0761 12.3614 15.8025 12.8304 15.3186 12.9801C15.266 13.0001 15.2028 13.0001 15.1502 13.0001C12.762 13.0001 10.3738 13.0001 7.99606 13.0001Z" fill="#0D47A1"/>
<path d="M14.9398 8.66918C14.5611 5.82519 12.278 3.52006 9.31115 2.9812C9.26907 2.97122 9.21647 2.96124 9.17438 2.95126C9.0797 2.9313 9.01657 2.85147 9.01657 2.76166V1.91346C9.11126 1.8935 9.19543 1.87354 9.27959 1.85358C9.73199 1.73384 10.0476 1.29476 9.99501 0.855692C9.95293 0.436577 9.55313 0.0174631 9.15334 0.00748418C8.41688 -0.00249473 7.68042 -0.00249473 6.94396 0.00748418C6.46 0.0174631 6.07073 0.376704 6.01813 0.825755C5.96552 1.29476 6.26011 1.71388 6.72302 1.8436C6.80719 1.86356 6.89136 1.88352 6.99657 1.90348C6.99657 2.21282 7.00709 2.50221 6.98605 2.80158C6.98605 2.85147 6.89136 2.92133 6.82823 2.9313C4.51365 3.35042 2.80927 4.54789 1.72562 6.52371C1.2101 7.46173 0.978638 8.47958 0.99968 9.54732C1.0102 10.0064 1.43104 10.4255 1.87291 10.4255H14.0455C14.5295 10.4255 14.9609 10.0363 14.9714 9.57726C14.9924 9.28787 14.9819 8.97852 14.9398 8.66918ZM12.3832 9.06833C12.3727 9.06833 12.3517 9.06833 12.3412 9.06833C12.1623 9.06833 12.0045 8.93861 11.9729 8.75899C11.6783 6.4838 9.70043 5.57572 9.61626 5.5358C9.4374 5.45597 9.35324 5.24641 9.4374 5.07677C9.52157 4.90713 9.74251 4.8273 9.92136 4.90713C10.0161 4.94704 12.3517 6.00481 12.6989 8.66918C12.7304 8.86876 12.5831 9.0384 12.3832 9.06833Z" fill="#0D47A1"/>
</svg>
