<svg width="24" height="20" viewBox="0 0 24 20" fill="none" xmlns="http://www.w3.org/2000/svg">
<path d="M11.9936 20C8.47438 20 4.97094 20 1.45171 20C0.646865 20 0.031395 19.4012 -0.000167607 18.6183C-0.0159489 17.7893 0.552177 17.1445 1.38858 17.1445C4.48172 17.1291 7.59063 17.1138 10.6838 17.1138C14.6291 17.1138 18.5586 17.1291 22.5039 17.1138C23.1825 17.1138 23.8769 17.6972 23.9716 18.2345C24.1136 19.0174 23.7033 19.739 22.9774 19.9693C22.8985 20 22.8038 20 22.7249 20C19.1425 20 15.5602 20 11.9936 20Z" fill="#282828"/>
<path d="M22.4092 13.3372C21.8411 8.96182 18.4166 5.41547 13.9663 4.58645C13.9031 4.5711 13.8242 4.55575 13.7611 4.5404C13.6191 4.50969 13.5244 4.38688 13.5244 4.24871V2.94377C13.6664 2.91307 13.7927 2.88237 13.9189 2.85166C14.5975 2.66744 15.0709 1.99194 14.992 1.31645C14.9289 0.671657 14.3292 0.0268663 13.7295 0.0115141C12.6248 -0.00383804 11.5202 -0.00383804 10.4155 0.0115141C9.68952 0.0268663 9.10562 0.579543 9.02671 1.27039C8.9478 1.99194 9.38968 2.63673 10.0841 2.83631C10.2103 2.86701 10.3366 2.89772 10.4944 2.92842C10.4944 3.40434 10.5102 3.84955 10.4786 4.31012C10.4786 4.38688 10.3366 4.49434 10.2419 4.50969C6.76999 5.15448 4.21342 6.99674 2.58795 10.0365C1.81467 11.4796 1.46748 13.0455 1.49904 14.6882C1.51482 15.3944 2.14607 16.0392 2.80889 16.0392H21.0678C21.7938 16.0392 22.4408 15.4404 22.4566 14.7342C22.4881 14.289 22.4724 13.8131 22.4092 13.3372ZM18.5744 13.9513C18.5586 13.9513 18.527 13.9513 18.5113 13.9513C18.243 13.9513 18.0063 13.7517 17.9589 13.4753C17.517 9.97506 14.5502 8.57801 14.4239 8.51661C14.1556 8.39379 14.0294 8.07139 14.1556 7.81041C14.2819 7.54942 14.6133 7.4266 14.8816 7.54942C15.0236 7.61083 18.527 9.23815 19.0478 13.3372C19.0952 13.6442 18.8742 13.9052 18.5744 13.9513Z" fill="#282828"/>
</svg>
