<svg width="24" height="25" viewBox="0 0 24 25" fill="none" xmlns="http://www.w3.org/2000/svg">
<path d="M-0.000488281 22.9858H23.9995V24.5858H-0.000488281V22.9858Z" fill="#282828"/>
<path d="M3.59954 9.38599C3.28128 9.38599 2.97605 9.51241 2.75101 9.73746C2.52596 9.9625 2.39954 10.2677 2.39954 10.586V21.386H7.19954V10.586C7.19954 10.2677 7.07311 9.9625 6.84806 9.73746C6.62302 9.51241 6.3178 9.38599 5.99954 9.38599H3.59954Z" fill="#282828"/>
<path d="M10.7995 15.7859C10.4812 15.7859 10.176 15.9123 9.95096 16.1374C9.72592 16.3624 9.59949 16.6676 9.59949 16.9859V21.3859H14.3995V16.9859C14.3995 16.6676 14.2731 16.3624 14.048 16.1374C13.823 15.9123 13.5177 15.7859 13.1995 15.7859H10.7995Z" fill="#282828"/>
<path d="M17.9994 18.186C17.6812 18.186 17.376 18.3125 17.1509 18.5375C16.9259 18.7626 16.7994 19.0678 16.7994 19.386V21.386H21.5994V19.386C21.5994 19.0678 21.473 18.7626 21.248 18.5375C21.0229 18.3125 20.7177 18.186 20.3994 18.186H17.9994Z" fill="#282828"/>
<path d="M9.8396 11.0499C10.1055 11.9348 10.589 12.7389 11.2458 13.3888C11.9027 14.0386 12.7119 14.5135 13.5996 14.7699C14.1207 14.9138 14.659 14.9865 15.1996 14.9859C16.6848 14.9859 18.1092 14.3959 19.1594 13.3457C20.2096 12.2955 20.7996 10.8711 20.7996 9.3859C20.7996 9.17373 20.7153 8.97024 20.5653 8.82021C20.4153 8.67019 20.2118 8.5859 19.9996 8.5859H17.1996C16.8813 8.5859 16.5761 8.45947 16.3511 8.23443C16.126 8.00938 15.9996 7.70416 15.9996 7.3859V4.5859C15.9996 4.37373 15.9153 4.17024 15.7653 4.02021C15.6153 3.87019 15.4118 3.7859 15.1996 3.7859C14.3643 3.78425 13.5393 3.96947 12.7849 4.32798C12.0305 4.6865 11.3658 5.20924 10.8396 5.8579C10.2632 6.57671 9.87084 7.4253 9.69658 8.33005C9.52232 9.2348 9.57142 10.1684 9.8396 11.0499Z" fill="#282828"/>
<path d="M18.3994 6.98594H23.1994C23.4116 6.98594 23.6151 6.90165 23.7651 6.75162C23.9151 6.60159 23.9994 6.39811 23.9994 6.18594C23.9994 4.70073 23.4094 3.27634 22.3592 2.22614C21.309 1.17594 19.8846 0.585938 18.3994 0.585938C18.1873 0.585938 17.9838 0.670223 17.8337 0.820252C17.6837 0.970281 17.5994 1.17376 17.5994 1.38594V5.79394C17.5994 6.62594 17.9594 6.98594 18.3994 6.98594Z" fill="#282828"/>
<path d="M-0.000488281 0.585938H11.1995V2.18594H-0.000488281V0.585938Z" fill="#282828"/>
<path d="M-0.000488281 3.78589H7.19951V5.38589H-0.000488281V3.78589Z" fill="#282828"/>
</svg>
