<svg width="16" height="16" viewBox="0 0 16 16" fill="none" xmlns="http://www.w3.org/2000/svg">
<path d="M11.75 2.81251H12.2187V4.28126C12.2187 4.54035 12.4284 4.75001 12.6875 4.75001H14.5625C14.8216 4.75001 15.0312 4.54035 15.0312 4.28126V2.81251H15.5C15.6895 2.81251 15.8607 2.69854 15.933 2.5232C16.0053 2.34785 15.9651 2.14645 15.8314 2.01232L13.9564 0.13732C13.7733 -0.0457734 13.4766 -0.0457734 13.2936 0.13732L11.4186 2.01232C11.2849 2.14645 11.2446 2.34785 11.3169 2.5232C11.3892 2.69854 11.5605 2.81251 11.75 2.81251Z" fill="#0D47A1"/>
<path d="M4.21875 8.43774C6.54509 8.43774 8.4375 6.54534 8.4375 4.21899C8.4375 1.89265 6.54509 0.000244141 4.21875 0.000244141C1.89241 0.000244141 0 1.89265 0 4.21899C0 6.54534 1.89241 8.43774 4.21875 8.43774ZM3.75 1.96159V1.40649C3.75 1.1474 3.95966 0.937744 4.21875 0.937744C4.47784 0.937744 4.6875 1.1474 4.6875 1.40649V1.9604C4.88275 2.02946 5.06337 2.13687 5.21394 2.28771C5.39612 2.47081 5.39612 2.7679 5.21303 2.95056C5.02994 3.13274 4.73237 3.13365 4.54928 2.94965C4.281 2.67953 3.75 2.89743 3.75 3.28149C3.75 3.54012 3.96056 3.75024 4.21875 3.75024C4.99419 3.75024 5.625 4.38106 5.625 5.15649C5.625 5.76681 5.23194 6.28224 4.6875 6.4764V7.03149C4.6875 7.29059 4.47784 7.50024 4.21875 7.50024C3.95966 7.50024 3.75 7.29059 3.75 7.03149V6.47759C3.55475 6.40852 3.37413 6.30112 3.22356 6.15028C3.04137 5.96718 3.04137 5.67009 3.22447 5.48743C3.40756 5.30524 3.70512 5.30434 3.88822 5.48834C4.1565 5.75799 4.6875 5.54056 4.6875 5.15649C4.6875 4.89787 4.47694 4.68774 4.21875 4.68774C3.44331 4.68774 2.8125 4.05693 2.8125 3.28149C2.8125 2.67118 3.20556 2.15574 3.75 1.96159Z" fill="#0D47A1"/>
<path d="M14.5625 5.6875H12.6875C12.4284 5.6875 12.2188 5.89716 12.2188 6.15625V7.5625H15.0312V6.15625C15.0312 5.89716 14.8216 5.6875 14.5625 5.6875Z" fill="#0D47A1"/>
<path d="M8.46875 9.4375H11.2812V8.03125C11.2812 7.77216 11.0716 7.5625 10.8125 7.5625H8.9375C8.67841 7.5625 8.46875 7.77216 8.46875 8.03125V9.4375Z" fill="#0D47A1"/>
<path d="M5.1875 9.4375C4.92841 9.4375 4.71875 9.64716 4.71875 9.90625V11.3125H7.53125V9.90625C7.53125 9.64716 7.32159 9.4375 7.0625 9.4375H5.1875Z" fill="#0D47A1"/>
<path d="M15.5312 15.0625H15.0312V8.5H12.2188V15.0625H11.2812V10.375H8.46875V15.0625H7.53125V12.25H4.71875V15.0625H3.78125V14.125H0.96875V15.0625H0.46875C0.209656 15.0625 0 15.2722 0 15.5312C0 15.7903 0.209656 16 0.46875 16C2.14859 16 15.7275 16 15.5312 16C15.7903 16 16 15.7903 16 15.5312C16 15.2722 15.7903 15.0625 15.5312 15.0625Z" fill="#0D47A1"/>
<path d="M1.4375 11.3125C1.17841 11.3125 0.96875 11.5222 0.96875 11.7812V13.1875H3.78125V11.7812C3.78125 11.5222 3.57159 11.3125 3.3125 11.3125H1.4375Z" fill="#0D47A1"/>
</svg>
