<svg width="24" height="26" viewBox="0 0 24 26" fill="none" xmlns="http://www.w3.org/2000/svg">
<path d="M11.9767 24.907C10.8368 24.9075 9.70254 24.7467 8.60688 24.4291C6.67097 23.8529 4.91011 22.7926 3.48718 21.3463C3.40352 21.264 3.33703 21.1655 3.29163 21.0567C3.24623 20.948 3.22284 20.8311 3.22284 20.7131C3.22284 20.595 3.24623 20.4782 3.29163 20.3694C3.33703 20.2606 3.40352 20.1622 3.48718 20.0798C3.65346 19.912 3.87885 19.8177 4.11384 19.8177C4.34884 19.8177 4.57423 19.912 4.74051 20.0798C5.94678 21.3208 7.44956 22.2262 9.10348 22.7085C10.8699 23.2248 12.7411 23.2525 14.5218 22.7889C16.3024 22.3253 17.9274 21.3872 19.227 20.0727C20.5266 18.7581 21.4534 17.1151 21.9105 15.3152C22.3676 13.5153 22.3384 11.6244 21.8259 9.83985C21.76 9.61169 21.7866 9.36643 21.8996 9.15803C22.0127 8.94964 22.2031 8.79518 22.4289 8.72863C22.6546 8.66532 22.8959 8.6936 23.1013 8.80742C23.3067 8.92125 23.46 9.11164 23.5285 9.33801C24.0452 11.1492 24.1383 13.057 23.8004 14.9108C23.4625 16.7646 22.7029 18.5137 21.5816 20.0201C20.4602 21.5264 19.0077 22.7487 17.3388 23.5906C15.6699 24.4325 13.8301 24.8709 11.9648 24.8712L11.9767 24.907Z" fill="#282828"/>
<path d="M1.33522 16.8179C1.14382 16.816 0.958023 16.7524 0.804894 16.6363C0.651766 16.5203 0.53931 16.3578 0.483911 16.1727C-0.268443 13.5757 -0.141516 10.7993 0.844571 8.28346C1.83066 5.76765 3.61948 3.65643 5.92749 2.28444C8.2355 0.912461 10.9306 0.358222 13.5857 0.709582C16.2407 1.06094 18.7038 2.2978 20.5843 4.22409C20.668 4.30647 20.7345 4.40494 20.7799 4.51371C20.8253 4.62247 20.8487 4.73932 20.8487 4.85736C20.8487 4.97541 20.8253 5.09226 20.7799 5.20102C20.7345 5.30978 20.668 5.40826 20.5843 5.49064C20.4181 5.65846 20.1927 5.75272 19.9577 5.75272C19.7227 5.75272 19.4973 5.65846 19.331 5.49064C18.1247 4.24963 16.622 3.34421 14.968 2.86195C13.2003 2.3235 11.3217 2.27632 9.52971 2.72539C7.73771 3.17445 6.09855 4.10316 4.7846 5.41387C3.47064 6.72458 2.53044 8.36884 2.06285 10.1738C1.59526 11.9787 1.61757 13.8776 2.12742 15.6708C2.19327 15.899 2.16673 16.1443 2.05365 16.3526C1.94056 16.561 1.75019 16.7155 1.5244 16.782C1.4628 16.8008 1.39937 16.8128 1.33522 16.8179Z" fill="#282828"/>
<path d="M19.8631 5.6817C19.6577 5.68313 19.4581 5.61242 19.2986 5.48166C19.139 5.35091 19.0293 5.16821 18.9882 4.96479L18.196 0.985908C18.1771 0.763805 18.2397 0.542435 18.3719 0.363963C18.5041 0.185492 18.6966 0.0623887 18.9128 0.0181023C19.129 -0.0261842 19.3537 0.0114404 19.5443 0.123809C19.7348 0.236178 19.8777 0.41544 19.9459 0.627451L20.7263 4.61828C20.7715 4.85117 20.7234 5.09267 20.5926 5.28979C20.4619 5.48691 20.259 5.62356 20.0287 5.66975L19.8631 5.6817Z" fill="#282828"/>
<path d="M4.88239 25.6C4.67809 25.597 4.48072 25.5247 4.32202 25.3947C4.16332 25.2646 4.05251 25.0844 4.00743 24.883L3.22706 20.8922C3.19353 20.6644 3.24811 20.4322 3.37948 20.244C3.51085 20.0557 3.70892 19.9258 3.93256 19.8812C4.1562 19.8366 4.38824 19.8808 4.58052 20.0045C4.7728 20.1282 4.91054 20.3221 4.96515 20.5457L5.75735 24.5246C5.79966 24.7586 5.75065 25.0001 5.62058 25.1983C5.49051 25.3966 5.28951 25.5363 5.05974 25.588L4.88239 25.6Z" fill="#282828"/>
<path d="M11.9767 4.09253C10.2812 4.09253 8.62388 4.60059 7.21418 5.55246C5.80449 6.50433 4.70576 7.85727 4.05695 9.44017C3.40813 11.0231 3.23837 12.7649 3.56914 14.4453C3.8999 16.1257 4.71633 17.6692 5.91518 18.8807C7.11403 20.0922 8.64145 20.9173 10.3043 21.2515C11.9672 21.5858 13.6908 21.4142 15.2571 20.7586C16.8235 20.1029 18.1623 18.9926 19.1042 17.568C20.0462 16.1434 20.5489 14.4686 20.5489 12.7553C20.5458 10.4587 19.6416 8.25716 18.0347 6.63327C16.4278 5.00938 14.2492 4.09569 11.9767 4.09253ZM11.9767 12.0742C12.6351 12.0777 13.2713 12.3153 13.7736 12.7455C14.276 13.1757 14.6124 13.7709 14.7238 14.4266C14.8353 15.0824 14.7146 15.7569 14.3831 16.3318C14.0516 16.9067 13.5303 17.3453 12.9107 17.5705V18.0485C12.9107 18.2988 12.8123 18.5389 12.6372 18.7159C12.462 18.893 12.2244 18.9924 11.9767 18.9924C11.7289 18.9924 11.4913 18.893 11.3162 18.7159C11.141 18.5389 11.0426 18.2988 11.0426 18.0485V17.5347C10.5018 17.3434 10.0324 16.9884 9.69819 16.5181C9.36396 16.0478 9.18109 15.485 9.17443 14.906C9.17443 14.6556 9.27284 14.4156 9.44802 14.2385C9.62319 14.0615 9.86078 13.9621 10.1085 13.9621C10.3562 13.9621 10.5938 14.0615 10.769 14.2385C10.9442 14.4156 11.0426 14.6556 11.0426 14.906C11.0449 15.0922 11.1017 15.2735 11.2057 15.4271C11.3098 15.5808 11.4565 15.6999 11.6273 15.7695C11.7982 15.8391 11.9856 15.8561 12.166 15.8184C12.3464 15.7806 12.5118 15.6898 12.6412 15.5573C12.7707 15.4248 12.8585 15.2566 12.8936 15.0739C12.9287 14.8911 12.9095 14.7019 12.8385 14.5301C12.7674 14.3583 12.6477 14.2116 12.4944 14.1084C12.341 14.0052 12.1609 13.9501 11.9767 13.9501C11.3182 13.9466 10.6821 13.709 10.1797 13.2788C9.67738 12.8486 9.34098 12.2534 9.22953 11.5977C9.11808 10.9419 9.23871 10.2674 9.57024 9.69248C9.90177 9.11759 10.423 8.67904 11.0426 8.45376V7.97582C11.0426 7.72547 11.141 7.48538 11.3162 7.30835C11.4913 7.13133 11.7289 7.03188 11.9767 7.03188C12.2244 7.03188 12.462 7.13133 12.6372 7.30835C12.8123 7.48538 12.9107 7.72547 12.9107 7.97582V8.45376C13.4572 8.64714 13.9306 9.00752 14.2653 9.48494C14.6001 9.96236 14.7795 10.5332 14.7789 11.1183C14.7789 11.3686 14.6805 11.6087 14.5053 11.7858C14.3301 11.9628 14.0926 12.0622 13.8448 12.0622C13.5971 12.0622 13.3595 11.9628 13.1843 11.7858C13.0092 11.6087 12.9107 11.3686 12.9107 11.1183C12.9107 10.9316 12.856 10.7491 12.7533 10.5939C12.6507 10.4386 12.5048 10.3177 12.3341 10.2462C12.1634 10.1748 11.9756 10.1561 11.7944 10.1925C11.6132 10.2289 11.4468 10.3188 11.3162 10.4508C11.1855 10.5828 11.0966 10.751 11.0605 10.9341C11.0245 11.1172 11.043 11.307 11.1137 11.4795C11.1844 11.652 11.3041 11.7994 11.4577 11.9032C11.6113 12.0069 11.7919 12.0622 11.9767 12.0622V12.0742Z" fill="#282828"/>
</svg>
