<svg width="24" height="25" viewBox="0 0 24 25" fill="none" xmlns="http://www.w3.org/2000/svg">
<path fill-rule="evenodd" clip-rule="evenodd" d="M6.13898 1.42315V5.33012C6.13898 5.79226 6.51405 6.16733 6.97619 6.16733C7.43832 6.16733 7.81339 5.79226 7.81339 5.33012V1.42315C7.81339 0.961007 7.43832 0.585938 6.97619 0.585938C6.51405 0.585938 6.13898 0.961007 6.13898 1.42315Z" fill="#282828"/>
<path fill-rule="evenodd" clip-rule="evenodd" d="M16.1855 1.42315V5.33012C16.1855 5.79226 16.5606 6.16733 17.0228 6.16733C17.4849 6.16733 17.86 5.79226 17.86 5.33012V1.42315C17.86 0.961007 17.4849 0.585938 17.0228 0.585938C16.5606 0.585938 16.1855 0.961007 16.1855 1.42315Z" fill="#282828"/>
<path fill-rule="evenodd" clip-rule="evenodd" d="M23.9995 14.9403V10.9116H-0.000488281V20.1209C-0.000488281 22.4328 1.87374 24.307 4.18555 24.307H13.9541C12.2596 23.0333 11.1623 21.0062 11.1623 18.7256C11.1623 14.8756 14.289 11.7489 18.139 11.7489C20.5948 11.7489 22.756 13.0203 23.9995 14.9403ZM8.92974 2.53955V5.33025C8.92974 6.40857 8.05457 7.28374 6.97625 7.28374C6.78202 7.28374 6.59448 7.25583 6.41811 7.20225V2.53955H4.18555C1.87374 2.53955 -0.000488281 4.41378 -0.000488281 6.7256V9.23722H23.9995V6.7256C23.9995 4.41378 22.1253 2.53955 19.8134 2.53955H18.9762V5.33025C18.9762 6.40857 18.1011 7.28374 17.0228 7.28374C16.8285 7.28374 16.641 7.25583 16.4646 7.20225V2.53955H8.92974Z" fill="#282828"/>
<path fill-rule="evenodd" clip-rule="evenodd" d="M18.1391 12.865C14.9041 12.865 12.2786 15.4905 12.2786 18.7255C12.2786 21.9604 14.9041 24.5859 18.1391 24.5859C21.3741 24.5859 23.9995 21.9604 23.9995 18.7255C23.9995 15.4905 21.3741 12.865 18.1391 12.865ZM15.3149 19.038L16.9893 20.7124C17.3164 21.0395 17.8455 21.0395 18.1726 20.7124L20.9633 17.9217C21.2903 17.5958 21.2903 17.0644 20.9633 16.7385C20.6373 16.4114 20.106 16.4114 19.78 16.7385L17.5809 18.9364L16.4982 17.8548C16.1722 17.5277 15.6409 17.5277 15.3149 17.8548C14.9878 18.1807 14.9878 18.7121 15.3149 19.038Z" fill="#282828"/>
</svg>
