<svg width="24" height="25" viewBox="0 0 24 25" fill="none" xmlns="http://www.w3.org/2000/svg">
<path d="M7.56503 14.6446V13.1335C6.28726 13.2611 4.62103 13.0927 3.68059 12.4699V13.6491C3.68059 13.884 3.98215 14.1188 4.4677 14.3179C5.31103 14.6497 6.50703 14.7569 7.56503 14.6446ZM7.56503 16.7836V15.2725C6.28726 15.4002 4.62103 15.2317 3.68059 14.6089V15.7882C3.68059 16.023 3.98215 16.2578 4.4677 16.4518C5.31103 16.7939 6.50703 16.896 7.56503 16.7836ZM21.5439 5.31764C19.9441 3.21946 17.7055 1.73899 15.2266 1.0447C12.7988 0.36572 10.141 0.442296 7.61614 1.42758C2.93437 3.2603 -0.0658512 7.7834 0.000593208 12.7353L0.930815 12.6434C0.900148 8.09481 3.69081 3.9648 7.95859 2.29544C10.2841 1.38674 12.7324 1.31526 14.9659 1.93808C17.2557 2.57622 19.3206 3.94438 20.7977 5.8792C20.8999 6.01704 20.8744 6.21103 20.7364 6.31824L20.1588 6.74707L22.975 7.97739L22.6326 4.91945L21.9886 5.39422C21.8404 5.50653 21.641 5.46569 21.5439 5.31764ZM8.79681 10.1062C8.39814 9.61612 8.1017 9.04435 7.92792 8.41643C6.80348 8.23264 5.40303 8.31943 4.4677 8.6972C3.41992 9.11582 3.41992 9.61101 4.4677 10.0296C5.62281 10.4942 7.52926 10.535 8.79681 10.1062ZM9.65548 10.923C9.51748 10.8209 9.3897 10.7137 9.26192 10.6014C7.8257 11.1936 5.58703 11.163 4.23259 10.6167C4.02304 10.535 3.83904 10.438 3.68059 10.3308V11.5101C3.68059 11.7449 3.98215 11.9798 4.4677 12.1789C5.30592 12.5158 6.50703 12.6179 7.55992 12.5107V12.4443C7.56503 11.5509 8.81214 11.0966 9.65548 10.923ZM13.3559 11.7143C13.0441 11.7807 12.7221 11.8164 12.3899 11.8164C11.7306 11.8164 11.107 11.6786 10.5397 11.4284C9.82925 11.4897 9.21592 11.6479 8.78148 11.8572C8.41348 12.0359 8.1937 12.2401 8.1937 12.4341C8.1937 12.72 8.6537 12.9702 8.98081 13.1029C10.2177 13.6032 12.2724 13.6032 13.5093 13.1029C13.9948 12.9089 14.2964 12.669 14.2964 12.4341C14.2964 12.1176 13.6881 11.8317 13.3559 11.7143ZM10.8719 8.2939C10.8566 8.12033 10.9844 7.97228 11.1581 7.95186C11.3319 7.93655 11.4853 8.06418 11.5006 8.23775C11.5517 8.79931 12.4973 9.08519 13.0441 8.64105C13.1924 8.51853 13.2793 8.36027 13.2793 8.1867C13.2793 7.06358 10.8668 8.02333 10.8668 6.21614C10.8668 5.55248 11.4239 5.06239 12.0679 4.94497V4.58251C12.0679 4.40384 12.2059 4.266 12.395 4.266C12.5739 4.266 12.7119 4.41405 12.7068 4.58762L12.6966 4.95008C13.3406 5.0675 13.9079 5.55248 13.9079 6.22124C13.9079 6.39482 13.7699 6.53776 13.591 6.53776C13.4173 6.53776 13.2741 6.39482 13.2741 6.22124C13.2741 5.62905 12.2928 5.30743 11.7306 5.76689C11.5824 5.88941 11.4955 6.04767 11.4955 6.22124C11.4955 7.33925 13.9079 6.3846 13.9079 8.1918C13.9079 8.85546 13.3457 9.34555 12.7017 9.46297L12.6966 9.83564C12.6966 10.0092 12.5586 10.1522 12.3797 10.1522C12.2059 10.1522 12.0628 10.0092 12.0628 9.83564V9.46297C11.4648 9.35065 10.9333 8.91672 10.8719 8.2939ZM15.2521 13.6491C15.063 13.7717 14.971 13.8482 14.7973 13.981C14.2248 14.4506 13.7188 15.0786 13.3201 15.8545C13.315 15.8596 13.315 15.8698 13.3099 15.8749C12.6761 17.1461 12.3286 18.8155 12.4615 20.8932C12.4819 21.0923 12.3337 21.2455 12.1497 21.2455C11.981 21.2455 11.8073 21.22 11.7204 21.368C11.6539 21.4905 11.6641 21.71 11.8379 21.7407C13.9488 22.0674 15.8859 22.241 17.8946 22.2206C19.8164 22.2001 21.6206 22.0112 23.6395 21.7407C23.8592 21.71 23.8388 21.2506 23.5066 21.2506H23.3175C23.1335 21.2455 22.9955 21.1025 23.0006 20.9239C23.0926 18.7899 22.7092 17.09 22.0397 15.8137C22.0346 15.8035 22.0295 15.7984 22.0244 15.7882C21.5081 14.808 20.8181 14.0831 20.0464 13.6032C18.5488 12.6741 16.7344 12.6945 15.2521 13.6491ZM18.2421 22.8434C18.1297 22.8434 18.0121 22.8485 17.8997 22.8485C17.3528 22.8536 16.7957 22.8485 16.2284 22.823L16.0393 22.8995C13.7444 23.798 11.2859 23.8797 9.0217 23.2518C6.7677 22.6187 4.70792 21.2761 3.20526 19.3158C3.10304 19.1779 3.12859 18.9788 3.26659 18.8767L3.84415 18.4479L1.02793 17.2176L1.37037 20.2704L2.01437 19.7956C2.16259 19.6884 2.35681 19.7344 2.45904 19.8773C4.07415 21.9908 6.30259 23.4662 8.76103 24.1554C11.1939 24.8395 13.8568 24.7527 16.3715 23.7674C17.0308 23.507 17.6544 23.2007 18.2421 22.8434ZM22.6479 15.6197C22.8524 16.0281 23.0312 16.4722 23.1795 16.9572C23.7468 15.4972 24.0279 13.935 23.9972 12.3626L23.067 12.4648C23.0875 13.5317 22.9444 14.5885 22.6479 15.6197ZM12.8244 15.4563C13.2281 14.6957 13.729 14.0677 14.2964 13.5828V13.4041C12.8857 14.3434 9.60437 14.3434 8.1937 13.4041V14.5834C8.1937 14.8692 8.6537 15.1194 8.98081 15.2521C10.0235 15.6656 11.6181 15.7269 12.8244 15.4563ZM12.027 17.723C12.1446 17.1563 12.303 16.6356 12.4973 16.1557C11.1275 16.365 9.23125 16.2323 8.1937 15.5431V16.7224C8.1937 17.0083 8.6537 17.2584 8.98081 17.3911C9.80881 17.7179 10.9895 17.8251 12.027 17.723ZM11.8073 19.8824C11.8124 19.3464 11.8533 18.841 11.9197 18.3611C10.6777 18.4581 9.09837 18.2845 8.1937 17.6821V18.8614C8.1937 19.0962 8.49525 19.3311 8.98081 19.5302C9.73725 19.8314 10.8157 19.9539 11.8073 19.8824ZM18.9015 10.1624C19.1979 9.72843 19.4126 9.14645 19.5046 8.48279C19.1877 8.47258 18.8912 8.35516 18.6459 8.16117C18.1041 8.59 17.3681 8.59 16.8264 8.16117C16.5861 8.35516 16.2744 8.46748 15.9626 8.48279C16.0444 9.06987 16.2335 9.67738 16.5657 10.1624C17.2506 11.163 18.2166 11.163 18.9015 10.1624ZM15.5844 9.58549C15.431 9.15156 15.3339 8.66657 15.2981 8.15096C15.2828 7.94165 15.4821 7.76808 15.707 7.83445C15.9115 7.89571 16.1568 7.84976 16.3357 7.74255C16.6526 5.34317 14.7973 3.22456 12.3848 3.22456C10.1819 3.22456 8.39814 5.00623 8.39814 7.20652C8.39814 9.40681 10.1819 11.1885 12.3848 11.1885C13.6626 11.1885 14.833 10.5861 15.5844 9.58549ZM17.1228 12.2452H18.3392C18.6459 12.2452 18.8146 11.8675 18.5897 11.6428C18.5284 11.5816 18.4364 11.5407 18.3392 11.5407H17.1228C16.8161 11.5407 16.6475 11.9185 16.8724 12.1431C16.9388 12.2044 17.0257 12.2452 17.1228 12.2452ZM18.0479 19.5914V20.0049C18.0479 20.1785 17.9048 20.3215 17.731 20.3215C17.5572 20.3215 17.4141 20.1836 17.4141 20.0049V19.5914C16.8161 19.4485 16.3766 18.9074 16.3766 18.2794C16.3766 18.1059 16.5146 17.9629 16.6935 17.9629C16.8672 17.9629 17.0104 18.1008 17.0104 18.2794C17.0104 18.9227 17.7924 19.2443 18.2421 18.7899C18.375 18.6572 18.4517 18.4785 18.4517 18.2794C18.4517 17.7383 18.053 17.6464 17.6544 17.5494C17.0155 17.3963 16.3766 17.2431 16.3766 16.2068C16.3766 15.5737 16.811 15.0377 17.4141 14.8948V14.4864C17.4141 14.3128 17.5521 14.1698 17.731 14.1698C17.9048 14.1698 18.0479 14.3128 18.0479 14.4864V14.8999C18.6459 15.0428 19.0855 15.584 19.0855 16.2119C19.0855 16.3854 18.9475 16.5284 18.7686 16.5284C18.5948 16.5284 18.4517 16.3906 18.4517 16.2119C18.4517 15.5686 17.6697 15.247 17.2199 15.7014C17.087 15.8341 17.0104 16.0128 17.0104 16.2119C17.0104 16.753 17.409 16.8449 17.8077 16.9419C18.4466 17.0951 19.0855 17.2482 19.0855 18.2845C19.0855 18.9125 18.651 19.4485 18.0479 19.5914Z" fill="#282828"/>
</svg>
