<svg width="16" height="18" viewBox="0 0 16 18" fill="none" xmlns="http://www.w3.org/2000/svg">
<path d="M15.7888 14.5018C15.7224 14.4349 15.6434 14.3818 15.5564 14.3455C15.4693 14.3093 15.376 14.2906 15.2817 14.2906C15.1875 14.2906 15.0941 14.3093 15.0071 14.3455C14.9201 14.3818 14.8411 14.4349 14.7747 14.5018L14.5676 14.7161V12.1524C14.5676 11.963 14.4924 11.7813 14.3584 11.6474C14.2245 11.5135 14.0429 11.4382 13.8535 11.4382C13.6641 11.4382 13.4824 11.5135 13.3485 11.6474C13.2146 11.7813 13.1393 11.963 13.1393 12.1524V14.7161L12.9322 14.5018C12.7978 14.3674 12.6154 14.2918 12.4252 14.2918C12.235 14.2918 12.0527 14.3674 11.9182 14.5018C11.7837 14.6363 11.7082 14.8187 11.7082 15.0089C11.7082 15.199 11.7837 15.3814 11.9182 15.5159L13.3464 16.9442C13.4128 17.0111 13.4918 17.0642 13.5788 17.1005C13.6659 17.1367 13.7592 17.1554 13.8535 17.1554C13.9477 17.1554 14.0411 17.1367 14.1281 17.1005C14.2151 17.0642 14.2941 17.0111 14.3605 16.9442L15.7888 15.5159C15.8557 15.4495 15.9088 15.3705 15.9451 15.2835C15.9813 15.1965 16 15.1031 16 15.0089C16 14.9146 15.9813 14.8213 15.9451 14.7342C15.9088 14.6472 15.8557 14.5682 15.7888 14.5018Z" fill="#0D47A1"/>
<path d="M10.6265 12.0665L12.0548 10.6382C12.4565 10.237 13.001 10.0117 13.5687 10.0117C14.1365 10.0117 14.681 10.237 15.0827 10.6382L15.1684 10.7239C15.8272 9.04441 15.8878 7.1893 15.34 5.47035C14.7922 3.7514 13.6695 2.27339 12.1604 1.28469C10.6513 0.29598 8.84793 -0.143154 7.05325 0.0410777C5.25857 0.225309 3.58199 1.02168 2.30527 2.29636C1.02854 3.57104 0.229484 5.24633 0.0423745 7.04072C-0.144735 8.8351 0.291506 10.6392 1.27779 12.1499C2.26407 13.6605 3.74028 14.7856 5.45835 15.3362C7.17642 15.8867 9.03162 15.8291 10.7122 15.173L10.6122 15.0944C10.2129 14.6908 9.99014 14.1452 9.99281 13.5775C9.99549 13.0098 10.2234 12.4663 10.6265 12.0665ZM8.56982 11.4381V12.1522C8.56982 12.3416 8.49458 12.5232 8.36066 12.6572C8.22673 12.7911 8.04509 12.8663 7.85569 12.8663C7.66629 12.8663 7.48465 12.7911 7.35073 12.6572C7.2168 12.5232 7.14156 12.3416 7.14156 12.1522V11.4381H5.71331C5.52391 11.4381 5.34227 11.3628 5.20834 11.2289C5.07442 11.095 4.99918 10.9133 4.99918 10.7239C4.99918 10.5345 5.07442 10.3529 5.20834 10.219C5.34227 10.085 5.52391 10.0098 5.71331 10.0098H9.28395V8.58155H6.42744C6.04864 8.58155 5.68536 8.43108 5.41751 8.16323C5.14966 7.89538 4.99918 7.53209 4.99918 7.1533V5.72504C4.99918 5.34624 5.14966 4.98296 5.41751 4.71511C5.68536 4.44726 6.04864 4.29678 6.42744 4.29678H7.14156V3.58265C7.14156 3.39326 7.2168 3.21161 7.35073 3.07769C7.48465 2.94376 7.66629 2.86853 7.85569 2.86853C8.04509 2.86853 8.22673 2.94376 8.36066 3.07769C8.49458 3.21161 8.56982 3.39326 8.56982 3.58265V4.29678H9.99808C10.1875 4.29678 10.3691 4.37202 10.503 4.50595C10.637 4.63987 10.7122 4.82151 10.7122 5.01091C10.7122 5.20031 10.637 5.38195 10.503 5.51588C10.3691 5.6498 10.1875 5.72504 9.99808 5.72504H6.42744V7.1533H9.28395C9.66275 7.1533 10.026 7.30377 10.2939 7.57162C10.5617 7.83947 10.7122 8.20276 10.7122 8.58155V10.0098C10.7122 10.3886 10.5617 10.7519 10.2939 11.0197C10.026 11.2876 9.66275 11.4381 9.28395 11.4381H8.56982Z" fill="#0D47A1"/>
</svg>
