<svg width="20" height="25" viewBox="0 0 20 25" fill="none" xmlns="http://www.w3.org/2000/svg">
<path d="M19.5135 11.8608C19.1893 11.5293 18.7959 11.3637 18.3328 11.3637H17.7775V7.95446C17.7775 5.77646 17.0138 3.90636 15.486 2.34385C13.9582 0.781285 12.1298 0 9.99991 0C7.87004 0 6.0413 0.781285 4.51367 2.34379C2.9858 3.90636 2.22211 5.7764 2.22211 7.95446V11.3637H1.66663C1.20382 11.3637 0.810208 11.5293 0.486101 11.8608C0.161993 12.192 0 12.5946 0 13.0683V23.2955C0 23.7688 0.162054 24.1715 0.486101 24.503C0.810208 24.8342 1.20382 25 1.66663 25H18.3332C18.7964 25 19.1897 24.8344 19.5139 24.503C19.8377 24.1715 20 23.7688 20 23.2955V13.0682C20.0002 12.5948 19.8377 12.1923 19.5135 11.8608ZM14.4443 11.3637H5.5555V7.95446C5.5555 6.69978 5.98961 5.62845 6.85765 4.74082C7.7258 3.85307 8.77316 3.40928 10.0001 3.40928C11.2271 3.40928 12.2743 3.853 13.1425 4.74082C14.0103 5.62839 14.4443 6.69978 14.4443 7.95446V11.3637Z" fill="#282828"/>
</svg>
