<svg width="24" height="24" viewBox="0 0 24 24" fill="none" xmlns="http://www.w3.org/2000/svg">
<path d="M20.3101 19.603V20.8701C20.3101 22.0866 19.3376 23.0877 18.1559 23.0877H13.3304C13.4658 22.6695 13.5397 22.2387 13.5397 21.7825V21.1869H18.1559C18.3282 21.1869 18.4636 21.0475 18.4636 20.8701V19.603C18.4636 19.0834 18.8822 18.6526 19.3869 18.6526C19.8916 18.6526 20.3101 19.0834 20.3101 19.603ZM13.5397 2.8132H18.1559C18.3282 2.8132 18.4636 2.95259 18.4636 3.12999V4.39714C18.4636 4.91667 18.8822 5.34751 19.3869 5.34751C19.8916 5.34751 20.3101 4.91667 20.3101 4.39714V3.12999C20.3101 1.91352 19.3376 0.912469 18.1559 0.912469H13.3304C13.4658 1.33063 13.5397 1.76146 13.5397 2.21764V2.8132ZM23.7323 11.3285L20.0393 7.52701C19.6823 7.15953 19.0914 7.15953 18.7344 7.52701C18.3775 7.89448 18.3775 8.50272 18.7344 8.87019L20.8517 11.0497H14.4629C13.9582 11.0497 13.5397 11.4805 13.5397 12.0001C13.5397 12.5196 13.9582 12.9504 14.4629 12.9504H20.8517L18.7344 15.1299C18.3775 15.4974 18.3775 16.1056 18.7344 16.4731C18.9191 16.6632 19.153 16.7519 19.3869 16.7519C19.6208 16.7519 19.8546 16.6632 20.0393 16.4731L23.7323 12.6717C24.0892 12.3042 24.0892 11.6959 23.7323 11.3285ZM10.8659 0.4715C10.3391 0.0482705 9.66943 -0.0999865 9.017 0.0672777L1.63106 1.96801C0.67089 2.2151 0 3.10084 0 4.11963V19.8805C0 20.9005 0.67089 21.785 1.63106 22.0321L9.01823 23.9328C9.19303 23.9772 9.36907 24 9.54387 24C10.019 24 10.4819 23.8378 10.8659 23.5286C11.3916 23.1054 11.6932 22.4693 11.6932 21.7812V2.2189C11.6932 1.53084 11.3916 0.894729 10.8659 0.4715Z" fill="#282828"/>
</svg>
