<svg width="25" height="25" viewBox="0 0 25 25" fill="none" xmlns="http://www.w3.org/2000/svg">
<path d="M23.6156 19.166L20.0876 15.638C20.1456 15.212 20.1326 14.787 20.0376 14.369C19.9736 14.085 20.1096 13.778 20.3776 13.605C20.8756 13.284 21.2796 12.847 21.5796 12.307C21.8646 11.792 22.0136 11.201 22.0106 10.607C22.0136 10.003 21.8646 9.41197 21.5796 8.89697C21.2806 8.35797 20.8756 7.92097 20.3776 7.59997C20.1096 7.42697 19.9726 7.12097 20.0376 6.83497C20.1716 6.24197 20.1516 5.63597 19.9786 5.03097C19.6486 3.88297 18.7316 2.96597 17.5826 2.63497C16.9766 2.46297 16.3706 2.44397 15.7796 2.57697C15.4926 2.63597 15.1886 2.50397 15.0156 2.23597C14.6946 1.73797 14.2586 1.33397 13.7186 1.03397C12.6746 0.455973 11.3756 0.454973 10.3306 1.03397C9.79259 1.33297 9.35659 1.73697 9.03559 2.23497C8.86259 2.50297 8.55959 2.63997 8.27059 2.57497C7.68059 2.44297 7.07359 2.46197 6.46659 2.63497C5.31859 2.96397 4.40059 3.88197 4.07259 5.02897C3.89859 5.63497 3.87859 6.24297 4.01259 6.83497C4.07659 7.11897 3.94059 7.42597 3.67259 7.59897C3.17359 7.92097 2.76959 8.35697 2.46959 8.89697C2.18459 9.41197 2.03559 10.003 2.03859 10.597C2.03559 11.201 2.18459 11.792 2.47059 12.308C2.76959 12.847 3.17459 13.283 3.67259 13.604C3.94059 13.778 4.07759 14.084 4.01259 14.369C3.91859 14.782 3.90459 15.203 3.96059 15.625L0.421588 19.165C0.00558761 19.58 -0.113412 20.175 0.111588 20.719C0.336588 21.26 0.840588 21.597 1.42659 21.597H2.98859V23.159C2.98859 24.053 3.71759 24.586 4.42359 24.586C4.79959 24.586 5.14359 24.441 5.42059 24.166L9.78659 19.8C9.78659 19.8 9.79259 19.789 9.79659 19.784C9.96559 19.921 10.1336 20.06 10.3306 20.17C10.8526 20.459 11.4386 20.604 12.0236 20.604C12.6086 20.604 13.1956 20.459 13.7186 20.169C13.9126 20.062 14.0766 19.925 14.2426 19.791C14.2456 19.794 14.2456 19.797 14.2486 19.8L18.6166 24.168C18.8916 24.441 19.2356 24.586 19.6116 24.586C20.3166 24.586 21.0456 24.053 21.0456 23.159V21.597H22.6076C23.1946 21.597 23.6986 21.26 23.9236 20.719C24.1486 20.175 24.0306 19.58 23.6156 19.166ZM12.0356 5.60297C13.4166 5.60297 14.5356 6.72197 14.5356 8.10297C14.5356 9.48397 13.4166 10.603 12.0356 10.603C10.6546 10.603 9.53559 9.48397 9.53559 8.10297C9.53559 6.72197 10.6546 5.60297 12.0356 5.60297ZM12.0356 11.603C13.9016 11.603 15.4556 12.886 15.8976 14.614C15.7696 14.614 15.6716 14.613 15.6386 14.613C14.2346 14.613 12.9236 15.233 12.0246 16.298C11.1256 15.233 9.81259 14.613 8.40859 14.613C8.37859 14.613 8.29059 14.613 8.17359 14.614C8.61559 12.886 10.1696 11.603 12.0356 11.603Z" fill="#282828"/>
</svg>
