<svg width="24" height="24" viewBox="0 0 24 24" fill="none" xmlns="http://www.w3.org/2000/svg">
<path d="M14.5684 14.5855C13.4594 14.4111 12.6799 13.3851 12.8037 12.2976C12.8204 12.1503 12.8539 12.0053 12.9035 11.8655C13.0315 11.4961 12.8998 11.0686 12.5829 10.8024C11.9126 10.2239 11.1527 9.75817 10.333 9.42342C10.1539 9.3477 9.95468 9.33393 9.76686 9.38428C9.57905 9.43463 9.41341 9.54622 9.29621 9.70137C9.1407 9.90702 8.94556 10.0794 8.7223 10.2084C8.49904 10.3373 8.2522 10.4202 7.99637 10.4522C7.74053 10.4841 7.48088 10.4644 7.23277 10.3943C6.98466 10.3242 6.75312 10.2051 6.55183 10.044C6.42754 9.94418 6.31635 9.82906 6.22091 9.70137C6.10378 9.54653 5.93839 9.43514 5.75088 9.3848C5.56337 9.33447 5.36443 9.34805 5.1855 9.42342C4.4288 9.73145 3.72267 10.1514 3.09077 10.6693C2.75798 10.9397 2.61877 11.3827 2.75423 11.7642C3.13202 12.7668 2.62205 13.9419 1.58523 14.3703C1.40045 14.447 1.2057 14.4971 1.00683 14.5189C0.804126 14.543 0.613744 14.6288 0.461541 14.7649C0.309339 14.9009 0.202694 15.0805 0.156093 15.2792C-0.0337012 16.1218 -0.0506035 16.9942 0.106409 17.8436C0.14685 18.0485 0.251443 18.2353 0.405056 18.3768C0.558668 18.5184 0.753335 18.6074 0.960892 18.631C2.07036 18.7477 2.89531 19.7283 2.82454 20.8195C2.81026 21.0391 2.75858 21.2547 2.67173 21.457C2.50768 21.8357 2.6347 22.2955 2.97359 22.5753C3.63971 23.1445 4.39263 23.6034 5.20378 23.9346C5.30449 23.9734 5.41092 23.9953 5.51876 23.9993C5.66485 24.0021 5.80926 23.9679 5.93858 23.8998C6.06789 23.8318 6.17791 23.7322 6.25841 23.6103C6.43102 23.3509 6.66403 23.1373 6.9374 22.9879C7.21077 22.8384 7.51634 22.7576 7.82785 22.7523C8.13936 22.747 8.4475 22.8174 8.7258 22.9574C9.0041 23.0975 9.24423 23.303 9.42557 23.5564C9.54259 23.7224 9.71406 23.8423 9.91021 23.8951C10.1064 23.9479 10.3148 23.9304 10.4994 23.8456C11.2416 23.5171 11.9319 23.0823 12.5487 22.5547C12.8716 22.2819 13.0019 21.8455 12.8651 21.4715C12.4751 20.4745 12.9719 19.2947 14.0041 18.856C14.1787 18.7816 14.3625 18.731 14.5506 18.7056C14.7504 18.6765 14.9365 18.5868 15.0837 18.4487C15.231 18.3106 15.3323 18.1306 15.3741 17.9331C15.4631 17.5187 15.5113 17.0965 15.518 16.6727C15.5175 16.2259 15.4704 15.7804 15.3774 15.3434C15.3351 15.1501 15.2351 14.9741 15.0906 14.8388C14.9462 14.7035 14.7641 14.6151 14.5684 14.5855ZM10.3447 16.6727C10.3448 17.1843 10.1932 17.6844 9.90908 18.1098C9.62494 18.5352 9.22103 18.8667 8.74843 19.0626C8.27583 19.2584 7.75577 19.3097 7.25403 19.2099C6.75228 19.1102 6.29138 18.8639 5.92962 18.5022C5.56785 18.1405 5.32147 17.6797 5.22164 17.1779C5.1218 16.6762 5.17299 16.1561 5.36874 15.6835C5.56449 15.2109 5.89599 14.8069 6.32134 14.5227C6.74668 14.2385 7.24676 14.0868 7.75832 14.0868C8.4431 14.0903 9.09883 14.3639 9.58309 14.8481C10.0673 15.3323 10.341 15.9879 10.3447 16.6727Z" fill="#282828"/>
<path d="M23.2341 4.2141C22.3403 4.07348 21.7117 3.24665 21.812 2.37014C21.825 2.25132 21.8519 2.13444 21.8922 2.02188C21.9953 1.72424 21.8893 1.38067 21.6339 1.16505C21.0933 0.698437 20.4803 0.323066 19.819 0.0537082C19.6744 -0.00721932 19.5136 -0.0180309 19.3621 0.0229943C19.2107 0.0640195 19.0773 0.154524 18.9833 0.280102C18.8579 0.44576 18.7005 0.58462 18.5206 0.688487C18.3407 0.792355 18.1417 0.859125 17.9356 0.884858C17.7294 0.910591 17.5202 0.894766 17.3202 0.838315C17.1202 0.781864 16.9336 0.685932 16.7713 0.55618C16.6718 0.475479 16.5827 0.382744 16.5061 0.280102C16.4117 0.155239 16.2785 0.0654043 16.1274 0.0248222C15.9762 -0.0157598 15.8159 -0.00476992 15.6717 0.0560518C15.0621 0.304155 14.4932 0.642616 13.9843 1.06006C13.7162 1.27801 13.6037 1.63518 13.7129 1.94266C14.0176 2.75028 13.6065 3.69757 12.7708 4.04302C12.6217 4.10472 12.4647 4.14511 12.3044 4.16301C12.1415 4.18215 11.9885 4.25086 11.8659 4.35985C11.7433 4.46883 11.6572 4.61282 11.6191 4.77235C11.4659 5.45154 11.4522 6.15478 11.5788 6.83942C11.6119 7.00441 11.6965 7.15468 11.8202 7.26869C11.944 7.3827 12.1007 7.4546 12.2679 7.47407C13.1617 7.56782 13.8268 8.35902 13.7678 9.23882C13.7568 9.41637 13.7156 9.59073 13.6459 9.75442C13.5137 10.06 13.6164 10.4303 13.8896 10.6558C14.4265 11.1141 15.0332 11.4836 15.6867 11.7502C15.768 11.7813 15.8538 11.7989 15.9408 11.8023C16.0585 11.8044 16.1749 11.7768 16.2791 11.7219C16.3833 11.6671 16.472 11.5869 16.537 11.4887C16.6761 11.2796 16.8639 11.1074 17.0842 10.9869C17.3045 10.8664 17.5508 10.8013 17.8019 10.797C18.053 10.7927 18.3013 10.8494 18.5257 10.9623C18.75 11.0752 18.9435 11.2409 19.0897 11.4451C19.184 11.5782 19.3216 11.6744 19.4791 11.7171C19.6365 11.7599 19.8039 11.7466 19.9526 11.6795C20.5511 11.4146 21.1078 11.0641 21.6053 10.6389C21.8654 10.4191 21.9704 10.0671 21.8598 9.76566C21.5458 8.96274 21.9461 8.0117 22.778 7.65641C22.9188 7.5965 23.067 7.55568 23.2186 7.53501C23.3797 7.51149 23.5296 7.43923 23.6484 7.32795C23.7671 7.21667 23.8489 7.0717 23.8828 6.91254C23.9545 6.5784 23.9933 6.23805 23.9986 5.89635C23.9982 5.53688 23.9605 5.17842 23.8861 4.82672C23.8516 4.67123 23.7709 4.52982 23.6545 4.42107C23.5381 4.31231 23.3916 4.24131 23.2341 4.21738V4.2141ZM19.8298 5.89635C19.8298 6.30861 19.7075 6.71161 19.4785 7.05439C19.2494 7.39717 18.9239 7.66433 18.543 7.8221C18.1622 7.97986 17.743 8.02114 17.3387 7.94071C16.9344 7.86028 16.563 7.66176 16.2715 7.37025C15.9799 7.07874 15.7814 6.70734 15.701 6.303C15.6206 5.89866 15.6618 5.47956 15.8196 5.09868C15.9774 4.7178 16.2445 4.39226 16.5873 4.16322C16.9301 3.93418 17.3331 3.81193 17.7454 3.81193C18.2973 3.81477 18.8258 4.03528 19.2161 4.42558C19.6064 4.81587 19.8269 5.3444 19.8298 5.89635Z" fill="#282828"/>
<path d="M23.8136 17.4776C23.5975 17.2924 23.4605 17.0314 23.4309 16.7484C23.4013 16.4653 23.4812 16.1816 23.6542 15.9557C23.7028 15.8939 23.7583 15.8379 23.8196 15.7888C23.8989 15.72 23.9556 15.6291 23.9825 15.5277C24.0094 15.4263 24.0053 15.3192 23.9706 15.2202C23.8293 14.7728 23.616 14.3514 23.3392 13.9725C23.2795 13.8887 23.1936 13.8273 23.095 13.7978C22.9965 13.7684 22.8909 13.7726 22.795 13.8098C22.6677 13.8594 22.5318 13.8829 22.3952 13.8789C22.2587 13.875 22.1243 13.8436 22.0001 13.7868C21.8759 13.73 21.7644 13.6488 21.6721 13.5481C21.5798 13.4474 21.5087 13.3292 21.4629 13.2005C21.4347 13.1211 21.4166 13.0384 21.409 12.9544C21.3993 12.852 21.3557 12.7558 21.2852 12.6809C21.2146 12.606 21.1211 12.5568 21.0195 12.541C20.5927 12.4694 20.1575 12.4623 19.7286 12.5199C19.6208 12.532 19.5193 12.5768 19.4377 12.6484C19.3562 12.72 19.2985 12.8149 19.2726 12.9202C19.1643 13.477 18.6074 13.8651 18.0206 13.7695C17.916 13.7531 17.8143 13.7215 17.7187 13.6758C17.6207 13.6303 17.511 13.6161 17.4046 13.635C17.2982 13.654 17.2002 13.7052 17.1239 13.7817C16.804 14.1088 16.5539 14.4974 16.3885 14.924C16.3498 15.0276 16.345 15.1409 16.3749 15.2474C16.4048 15.3539 16.4679 15.4481 16.5549 15.5165C16.7788 15.69 16.9276 15.9429 16.9706 16.2229C17.0136 16.5029 16.9475 16.7888 16.786 17.0215C16.7188 17.1167 16.6357 17.1996 16.5404 17.2667C16.4516 17.3332 16.3866 17.4266 16.3551 17.533C16.3236 17.6394 16.3272 17.7531 16.3655 17.8573C16.5078 18.2989 16.7199 18.7149 16.9936 19.0895C17.0282 19.135 17.07 19.1744 17.1174 19.2063C17.1824 19.2481 17.257 19.2728 17.3342 19.2782C17.4114 19.2835 17.4887 19.2692 17.5589 19.2367C17.7089 19.1678 17.8733 19.1364 18.0381 19.145C18.2029 19.1537 18.3632 19.2022 18.5051 19.2864C18.647 19.3706 18.7664 19.488 18.8529 19.6285C18.9395 19.769 18.9907 19.9284 19.0021 20.0931C19.0086 20.2001 19.0522 20.3015 19.1254 20.3798C19.1987 20.4581 19.297 20.5084 19.4033 20.522C19.8293 20.5804 20.2614 20.5764 20.6862 20.5102C20.7925 20.4963 20.892 20.4503 20.9713 20.3782C21.0507 20.3062 21.1061 20.2116 21.1301 20.1071C21.2314 19.5498 21.7835 19.1556 22.3708 19.2452C22.4703 19.2599 22.5673 19.2883 22.6591 19.3295C22.7573 19.372 22.8662 19.3833 22.9711 19.3619C23.0759 19.3405 23.1717 19.2875 23.2455 19.21C23.4008 19.0481 23.5399 18.8713 23.6607 18.6822C23.7849 18.481 23.8876 18.2674 23.9673 18.0448C24.0021 17.9458 24.006 17.8386 23.9785 17.7373C23.9511 17.636 23.8936 17.5455 23.8136 17.4776ZM21.3293 17.2432C21.1871 17.4739 20.9796 17.6572 20.7332 17.7699C20.4868 17.8826 20.2124 17.9198 19.9449 17.8766C19.6774 17.8334 19.4287 17.7119 19.2302 17.5274C19.0318 17.3428 18.8925 17.1036 18.83 16.8399C18.7675 16.5762 18.7847 16.2999 18.8792 16.046C18.9738 15.792 19.1415 15.5718 19.3612 15.4132C19.5809 15.2546 19.8427 15.1647 20.1136 15.1548C20.3844 15.145 20.652 15.2157 20.8826 15.358C21.1905 15.5502 21.4102 15.8561 21.4938 16.2093C21.5775 16.5624 21.5183 16.9343 21.3293 17.2442V17.2432Z" fill="#282828"/>
</svg>
