<svg width="40" height="40" viewBox="0 0 40 40" fill="none" xmlns="http://www.w3.org/2000/svg">
<path d="M13.5721 16.7505V16.0839C13.5721 15.7163 13.2725 15.4172 12.9043 15.4172C12.5361 15.4172 12.2365 15.7163 12.2365 16.0839V16.7505H13.5721Z" fill="white"/>
<path d="M6.55998 22.917C6.19176 22.917 5.89215 23.2161 5.89215 23.5836V24.2503H7.22781V23.5836C7.22781 23.216 6.9282 22.917 6.55998 22.917Z" fill="white"/>
<path d="M19.2488 22.917C18.8806 22.917 18.581 23.2161 18.581 23.5836V24.2503H19.9166V23.5836C19.9166 23.216 19.617 22.917 19.2488 22.917Z" fill="white"/>
<path d="M29.4282 0.593292L25.6799 2.84007L21.1829 0.0984715C20.9692 -0.0315252 20.7004 -0.0315252 20.4867 0.0984715L15.9931 2.8384L11.4994 0.0984715C11.2857 -0.0315252 11.0169 -0.0315252 10.8032 0.0984715L6.30957 2.8384L1.81592 0.0984715C1.37207 -0.172438 0.799988 0.14772 0.799988 0.667624V37.3334C0.799988 38.8061 1.99598 40 3.4713 40H27.6954C28.9169 40 29.9339 39.6534 29.9339 38.4348V0.879035C29.934 0.619875 29.6507 0.459879 29.4282 0.593292ZM10.9009 16.0839C10.9009 14.9811 11.7996 14.084 12.9044 14.084C14.0091 14.084 14.9078 14.9811 14.9078 16.0839V18.7505C14.9078 19.1187 14.6088 19.4172 14.24 19.4172C13.8712 19.4172 13.5722 19.1187 13.5722 18.7505V18.0839H12.2365V18.7505C12.2365 19.1187 11.9375 19.4172 11.5687 19.4172C11.1999 19.4172 10.9009 19.1187 10.9009 18.7505V16.0839ZM8.56348 26.2503C8.56348 26.6185 8.26446 26.917 7.89566 26.917C7.52685 26.917 7.22783 26.6185 7.22783 26.2503V25.5837H5.89217V26.2503C5.89217 26.6185 5.59315 26.917 5.22435 26.917C4.85554 26.917 4.55652 26.6185 4.55652 26.2503V23.5837C4.55652 22.4809 5.45525 21.5838 6.56 21.5838C7.66475 21.5838 8.56348 22.4809 8.56348 23.5837V26.2503ZM8.8974 15.4173H8.22957V18.7505C8.22957 19.1187 7.93055 19.4172 7.56174 19.4172C7.19293 19.4172 6.89391 19.1187 6.89391 18.7505V15.4173H6.22609C5.85728 15.4173 5.55826 15.1188 5.55826 14.7506C5.55826 14.3824 5.85728 14.084 6.22609 14.084H8.8974C9.2662 14.084 9.56522 14.3824 9.56522 14.7506C9.56522 15.1188 9.2662 15.4173 8.8974 15.4173ZM15.8973 22.3776L15.1182 26.3775C15.0067 26.9503 14.2609 27.1128 13.9201 26.6391L12.9044 25.2268L11.8886 26.6391C11.5478 27.113 10.802 26.9501 10.6905 26.3775L9.91141 22.3776C9.84104 22.0162 10.0774 21.6662 10.4395 21.5959C10.8012 21.5256 11.1521 21.7616 11.2225 22.1231L11.7062 24.6064L12.3618 23.6949C12.628 23.3248 13.1805 23.3246 13.4468 23.6949L14.1024 24.6064L14.5861 22.1231C14.6565 21.7617 15.0069 21.5258 15.3691 21.5959C15.7313 21.6663 15.9677 22.0163 15.8973 22.3776ZM16.2435 18.7505V14.7506C16.2435 14.3824 16.5425 14.084 16.9113 14.084C17.2801 14.084 17.5792 14.3824 17.5792 14.7506V15.4173L19.1819 14.2173C19.4771 13.9964 19.8956 14.056 20.1169 14.3506C20.3382 14.6451 20.2784 15.063 19.9833 15.2839L18.6282 16.2985C19.5811 16.7063 20.2505 17.6518 20.2505 18.7506C20.2505 19.1187 19.9514 19.4172 19.5826 19.4172C19.2138 19.4172 18.9148 19.1187 18.9148 18.7506C18.9148 18.0154 18.3156 17.4173 17.5792 17.4173V18.7506C17.5792 19.1187 17.2801 19.4172 16.9113 19.4172C16.5425 19.4172 16.2435 19.1187 16.2435 18.7505ZM21.2522 26.2503C21.2522 26.6185 20.9532 26.917 20.5844 26.917C20.2156 26.917 19.9166 26.6185 19.9166 26.2503V25.5837H18.5809V26.2503C18.5809 26.6185 18.2819 26.917 17.9131 26.917C17.5443 26.917 17.2452 26.6185 17.2452 26.2503V23.5837C17.2452 22.4809 18.144 21.5838 19.2487 21.5838C20.3535 21.5838 21.2522 22.4809 21.2522 23.5837V26.2503ZM21.5861 18.7505V14.7506C21.5861 14.3824 21.8851 14.084 22.2539 14.084H24.9253C25.2941 14.084 25.5931 14.3824 25.5931 14.7506C25.5931 15.1188 25.2941 15.4173 24.9253 15.4173H22.9218V16.0839H23.9235C24.2923 16.0839 24.5913 16.3824 24.5913 16.7506C24.5913 17.1187 24.2923 17.4172 23.9235 17.4172H22.9218V18.0839H24.9253C25.2941 18.0839 25.5931 18.3823 25.5931 18.7505C25.5931 19.1187 25.2941 19.4172 24.9253 19.4172H22.2539C21.8851 19.4172 21.5861 19.1187 21.5861 18.7505ZM26.4826 22.6202L25.2592 24.4521V26.2502C25.2592 26.6184 24.9602 26.9169 24.5913 26.9169C24.2225 26.9169 23.9235 26.6184 23.9235 26.2502V24.4521L22.7001 22.6202C22.4955 22.3138 22.5783 21.8999 22.8853 21.6957C23.1922 21.4914 23.6068 21.5742 23.8114 21.8806L24.5914 23.0485L25.3715 21.8806C25.5761 21.5742 25.9907 21.4914 26.2976 21.6957C26.6043 21.8999 26.6872 22.3138 26.4826 22.6202Z" fill="white"/>
<path d="M38.1356 0.13098L34.5294 2.78758L31.8044 0.737715C31.5843 0.572219 31.2695 0.728882 31.2695 1.00396C31.2695 41.0195 31.3125 38.6348 31.1793 39.1558C31.0701 39.5826 31.3816 40 31.8229 40H36.5286C38.0039 40 39.1999 38.8061 39.1999 37.3334V0.667633C39.2 0.120397 38.575 -0.192179 38.1356 0.13098Z" fill="white"/>
</svg>
